<svg width="33" height="33" viewBox="0 0 33 33" fill="none" xmlns="http://www.w3.org/2000/svg">
<g clip-path="url(#clip0_662_459)">
<path d="M24.1135 13.4057C24.4414 11.6362 24.053 9.80891 23.0337 8.3258C22.0144 6.84269 20.4477 5.82524 18.6782 5.49729C16.9087 5.16933 15.0814 5.55773 13.5983 6.57705C12.1152 7.59636 11.0977 9.16309 10.7698 10.9326C9.32713 18.7164 5.57903 20.3221 5.57903 20.3221L25.5946 24.0317C25.5946 24.0317 22.6708 21.1895 24.1135 13.4057Z" fill="white" stroke="white" stroke-width="2.46744" stroke-linecap="round" stroke-linejoin="round"/>
<path d="M16.6851 26.9814C16.4271 27.2822 16.0947 27.5099 15.721 27.6418C15.3474 27.7737 14.9456 27.8051 14.556 27.7329C14.1664 27.6607 13.8026 27.4874 13.501 27.2303C13.1994 26.9733 12.9707 26.6416 12.8376 26.2683" stroke="white" stroke-width="2.46744" stroke-linecap="round" stroke-linejoin="round"/>
</g>
<defs>
<clipPath id="clip0_662_459">
<rect width="27.1419" height="27.1419" fill="white" transform="translate(5.74634 0.800171) rotate(10.5)"/>
</clipPath>
</defs>
</svg>
